<?xml version="1.0" standalone="no"?>
<!DOCTYPE svg PUBLIC "-//W3C//DTD SVG 20010904//EN"
 "http://www.w3.org/TR/2001/REC-SVG-20010904/DTD/svg10.dtd">
<svg version="1.0" xmlns="http://www.w3.org/2000/svg"
 width="4071.000000pt" height="4071.000000pt" viewBox="0 0 4071.000000 4071.000000"
 preserveAspectRatio="xMidYMid meet">

<g transform="translate(0.000000,4071.000000) scale(0.100000,-0.100000)"
fill="#000000" stroke="none">
<path d="M19870 40703 c-2072 -49 -4106 -407 -6055 -1066 -1168 -395 -2342
-920 -3435 -1535 -1382 -777 -2666 -1714 -3860 -2815 -238 -220 -877 -859
-1097 -1097 -3861 -4186 -5774 -9647 -5368 -15325 392 -5478 3000 -10567 7235
-14116 3106 -2604 6928 -4224 10930 -4633 767 -79 1338 -107 2140 -107 931 0
1689 46 2565 157 5453 686 10386 3558 13713 7980 2395 3185 3795 7001 4032
10994 45 770 43 1739 -5 2510 -137 2165 -609 4266 -1405 6255 -2134 5333
-6426 9524 -11810 11533 -2392 892 -4993 1327 -7580 1265z m689 -5940 c955
-927 1884 -2295 2494 -3673 578 -1307 897 -2617 977 -4014 13 -232 13 -911 0
-1147 -144 -2538 -1131 -5007 -2988 -7474 -33 -44 -60 -81 -59 -81 1 -1 94 13
207 32 1927 322 3578 899 4983 1742 1187 711 2186 1610 2992 2692 1106 1486
1834 3355 2079 5345 42 338 76 763 76 951 l0 92 -57 -4 c-687 -50 -1003 -86
-1483 -165 -1326 -219 -2460 -624 -3515 -1257 -304 -182 -819 -540 -1026 -712
-97 -81 -137 -95 -264 -95 -106 0 -112 1 -173 34 -144 78 -223 239 -192 394
25 128 67 181 263 330 945 719 1878 1223 2929 1582 1008 345 2100 548 3378
629 258 17 859 41 864 35 2 -2 10 -112 17 -244 37 -713 -44 -1669 -216 -2547
-402 -2046 -1244 -3846 -2499 -5343 -348 -415 -829 -898 -1261 -1266 -1684
-1436 -3882 -2410 -6513 -2884 l-93 -17 128 -91 c181 -128 537 -365 743 -494
2022 -1268 4040 -1927 6072 -1982 2034 -55 4019 492 5903 1627 583 351 1211
812 1689 1238 l99 88 -46 41 c-25 22 -121 107 -214 189 -1685 1490 -3371 2315
-5378 2630 -126 20 -252 44 -280 53 -143 45 -241 157 -264 300 -31 195 93 378
287 423 63 15 82 13 362 -34 602 -102 1059 -207 1548 -357 1557 -478 2988
-1330 4417 -2629 219 -199 625 -589 625 -600 0 -10 -304 -333 -406 -431 -604
-581 -1481 -1227 -2309 -1702 -2222 -1272 -4602 -1788 -6995 -1516 -1740 197
-3493 818 -5205 1844 -717 429 -1359 880 -2135 1500 -903 721 -1644 1225
-2495 1699 -250 139 -787 410 -1042 524 -2025 912 -4080 1221 -6090 917 -1844
-279 -3702 -1095 -5260 -2308 -260 -203 -636 -524 -631 -538 4 -10 125 -118
327 -292 2577 -2215 5571 -3087 8756 -2547 1060 180 2122 514 3125 984 304
143 659 332 867 462 121 76 196 99 292 90 133 -12 246 -92 304 -214 29 -60 32
-77 32 -157 -1 -102 -18 -153 -84 -240 -39 -51 -55 -62 -321 -216 -999 -576
-2328 -1079 -3536 -1339 -915 -196 -1753 -280 -2654 -267 -392 6 -517 13 -845
43 -2161 196 -4213 1054 -6056 2530 -354 283 -665 557 -1037 914 l-243 233 38
41 c22 23 102 108 178 190 353 377 958 882 1545 1292 1697 1186 3611 1924
5530 2133 447 49 587 55 1190 55 603 0 755 -7 1185 -55 2188 -244 4330 -1119
6450 -2633 157 -113 215 -149 215 -136 0 50 -129 715 -195 1005 -323 1420
-800 2678 -1438 3792 -1423 2485 -3667 4193 -6525 4967 -647 176 -1358 304
-2017 365 -257 24 -633 46 -642 38 -14 -15 38 -601 87 -982 251 -1944 890
-3555 1998 -5035 169 -225 191 -270 192 -382 1 -366 -446 -512 -675 -220 -96
121 -310 418 -429 594 -1107 1635 -1714 3431 -1895 5608 -26 305 -68 1137 -58
1146 1 1 129 8 285 15 937 43 2220 -121 3347 -426 2563 -694 4679 -2100 6186
-4110 1035 -1380 1782 -3021 2248 -4935 93 -380 162 -715 248 -1195 l18 -99
140 194 c1510 2111 2350 4230 2530 6385 196 2352 -455 4745 -1870 6875 -305
457 -663 925 -972 1269 l-82 90 -119 -132 c-1365 -1522 -2188 -3080 -2621
-4957 -53 -230 -132 -623 -151 -755 -16 -109 -56 -190 -125 -253 -187 -171
-480 -112 -589 118 -44 92 -42 175 7 435 335 1746 857 3061 1748 4400 368 553
776 1074 1249 1595 191 211 574 609 585 610 6 0 111 -98 234 -217z m-3914
-22793 c159 -18 281 -64 401 -153 175 -129 318 -340 405 -598 l29 -87 0 -784
c0 -869 2 -839 -65 -930 -67 -91 -215 -187 -383 -248 l-75 -27 76 -11 c230
-35 390 -171 489 -416 l33 -81 3 -897 c3 -971 3 -963 -51 -1098 -40 -97 -86
-167 -173 -259 -127 -134 -314 -257 -497 -326 l-67 -25 -1360 0 -1360 0 0
2975 0 2975 1253 0 c769 0 1287 -4 1342 -10z m3533 -2372 l2 -2378 880 0 880
0 0 -595 0 -595 -1455 0 -1455 0 0 2968 c0 1633 3 2972 7 2975 3 4 261 6 572
5 l566 -3 3 -2377z m5634 2355 c278 -78 489 -304 604 -648 l34 -103 -2 -584
-3 -583 -557 -3 -557 -2 -3 417 c-4 440 -5 452 -50 501 l-21 22 -428 0 c-276
0 -438 -4 -456 -11 -41 -15 -111 -87 -139 -141 l-24 -48 2 -1822 3 -1823 22
-35 c12 -19 37 -44 55 -55 32 -19 51 -20 483 -20 411 0 453 2 482 18 69 37 68
22 71 620 l3 537 560 0 560 0 -3 -762 c-4 -853 0 -806 -77 -963 -112 -227
-373 -383 -713 -425 -66 -8 -349 -10 -958 -8 -784 4 -872 6 -940 22 -366 86
-580 342 -620 744 -8 75 -10 753 -8 2262 4 2029 5 2159 22 2229 39 164 97 278
194 382 148 160 380 266 652 298 41 5 449 8 905 7 816 -2 831 -2 907 -23z"/>
<path d="M15282 10243 l3 -538 378 -3 c368 -2 378 -2 420 19 73 37 136 89 162
134 l26 43 -3 359 -3 359 -30 59 c-18 35 -44 69 -64 82 l-34 23 -429 0 -428 0
2 -537z"/>
<path d="M15280 7886 l0 -666 423 0 422 0 50 29 c75 43 143 108 170 162 l25
48 0 428 0 428 -31 65 c-17 36 -45 80 -62 98 -66 69 -44 67 -544 70 l-453 3 0
-665z"/>
</g>
</svg>
